<svg width="133" height="29" viewBox="0 0 133 29" fill="none" xmlns="http://www.w3.org/2000/svg">
<g clip-path="url(#clip0_1766_17317)">
<path d="M3.92796 15.2639C3.92879 13.0534 4.79766 10.9336 6.34379 9.36992C7.88991 7.80626 9.9869 6.9266 12.1743 6.92409V4.34985C12.1748 4.15331 12.1343 3.95887 12.0552 3.77929C11.9762 3.59972 11.8604 3.43908 11.7156 3.30791C11.5707 3.17675 11.4001 3.07802 11.2148 3.01822C11.0295 2.95842 10.8339 2.9389 10.6406 2.96094C10.3179 2.99266 9.9976 3.04538 9.68164 3.11877C7.39363 3.60303 5.28953 4.73613 3.6158 6.38534C1.94207 8.03456 0.768025 10.1316 0.231175 12.4308C0.128096 12.8759 0.0999854 13.1584 0.0187717 13.6177C-0.0144386 13.8202 -0.00348782 14.0276 0.0508675 14.2254C0.105223 14.4231 0.201669 14.6065 0.333458 14.7627C0.465247 14.9189 0.6292 15.0441 0.813857 15.1296C0.998515 15.2151 1.19942 15.2588 1.40253 15.2576H3.92796" fill="white"/>
<path d="M40.9223 20.6381C41.0441 22.8636 42.3842 24.3314 44.5941 24.6502C46.6635 24.9501 48.6814 24.6502 50.6602 24.0189C50.9095 23.9314 51.1647 23.8623 51.4239 23.8121C51.9627 23.7222 52.4094 23.97 52.4484 24.5066C52.514 25.3635 52.5109 26.2244 52.439 27.0808C52.3875 27.6648 51.908 27.9757 51.3739 28.1446C49.4052 28.7851 47.34 29.0694 45.2735 28.9843C43.6695 28.9132 42.089 28.7175 40.5881 28.1083C37.6207 26.9103 35.948 24.666 35.5075 21.5078C35.1952 19.2981 35.1671 17.0553 35.6059 14.8504C36.3134 11.3071 38.4594 9.1101 41.9328 8.29727C44.5551 7.6833 47.1805 7.70698 49.7106 8.73604C53.7353 10.3696 54.6802 14.3817 53.5104 17.6772C52.8404 19.5712 51.3021 20.4156 49.4326 20.5276C47.2039 20.6602 44.9643 20.6113 42.7278 20.6381C42.1405 20.6381 41.5517 20.6381 40.927 20.6381H40.9223ZM40.927 16.6687C42.9761 16.6687 44.9877 16.6923 47.0071 16.6576C47.7708 16.6434 48.1457 16.2472 48.2971 15.6222C48.4541 15.0125 48.395 14.3665 48.13 13.7963C47.8649 13.2261 47.4108 12.7676 46.8462 12.5003C43.9585 11.1225 40.6677 13.4221 40.927 16.6687Z" fill="white"/>
<path d="M33.0586 16.8533C33.0592 15.8486 32.9772 14.8455 32.8134 13.8545C32.3604 11.2834 31.0345 9.3421 28.4934 8.52453C25.6057 7.5949 21.8932 7.587 19.1538 8.79599C19.0934 8.81326 19.0308 8.82176 18.968 8.82125C18.9047 8.8215 18.8416 8.813 18.7806 8.79599C17.175 8.08733 15.2368 7.87899 13.3236 7.86479C9.29887 7.8348 6.1003 9.71142 5.17102 13.5878C4.93832 14.5584 4.88521 15.8511 4.87584 16.8517C4.84773 20.2356 4.86647 23.9052 4.86647 27.2891C4.86647 27.6994 5.02741 28.0929 5.31402 28.3834C5.60063 28.6739 5.98953 28.8378 6.39547 28.839H8.88499C9.08616 28.8395 9.28543 28.7997 9.47133 28.722C9.65723 28.6443 9.82609 28.5302 9.96819 28.3863C10.1103 28.2424 10.2228 28.0715 10.2994 27.8835C10.3759 27.6955 10.4148 27.494 10.414 27.2907C10.414 26.904 10.414 20.122 10.4374 17.0096C10.4339 16.3086 10.4999 15.6091 10.6342 14.9214C10.9466 13.4284 11.7275 12.6345 13.2377 12.4798C14.0823 12.3707 14.9404 12.4945 15.721 12.8381C15.7984 12.8792 15.8642 12.9397 15.912 13.0137C15.9598 13.0877 15.9882 13.1729 15.9943 13.2611C15.9943 13.2611 16.0615 26.3895 16.0615 27.2907C16.0613 27.494 16.1007 27.6954 16.1775 27.8834C16.2543 28.0713 16.367 28.2421 16.5091 28.386C16.6512 28.5299 16.82 28.6442 17.0058 28.7222C17.1916 28.8002 17.3908 28.8404 17.592 28.8406H20.3408C20.5429 28.843 20.7433 28.8045 20.9304 28.7274C21.1176 28.6503 21.2875 28.5362 21.4304 28.3919C21.5733 28.2475 21.6862 28.0757 21.7625 27.8866C21.8387 27.6975 21.8768 27.4949 21.8745 27.2907C21.8745 26.5899 21.8917 15.5449 21.8917 13.2926C21.8917 13.0354 21.9432 12.8886 22.0853 12.8191C22.9198 12.5104 23.8117 12.3924 24.6967 12.4735C26.2007 12.6313 26.9863 13.4205 27.3002 14.9151C27.4361 15.6026 27.502 16.3022 27.497 17.0032C27.497 17.6993 27.5079 19.5728 27.5079 19.5728V27.2844C27.5052 27.4898 27.5431 27.6936 27.6195 27.8839C27.6959 28.0742 27.8091 28.2472 27.9526 28.3926C28.0961 28.538 28.2669 28.653 28.455 28.7308C28.6431 28.8085 28.8447 28.8475 29.0479 28.8454H31.5468C31.7478 28.845 31.9468 28.8045 32.1324 28.7262C32.3179 28.648 32.4864 28.5336 32.6281 28.3894C32.7698 28.2453 32.8821 28.0744 32.9583 27.8864C33.0346 27.6984 33.0734 27.4971 33.0726 27.2939C33.0726 23.91 33.0929 20.2404 33.0633 16.8565" fill="white"/>
<path d="M111.644 8.69806C112.239 8.91271 112.708 9.49669 112.706 10.4342C112.72 11.1097 112.694 11.7853 112.628 12.4576C112.555 13.07 112.099 13.3367 111.489 13.1821C110.562 12.9469 109.65 12.6265 108.713 12.445C107.533 12.2022 106.316 12.2081 105.139 12.4624C103.126 12.9138 101.859 14.1985 101.653 16.2377C101.514 17.5837 101.507 18.9402 101.631 20.2876C101.867 22.7072 103.462 24.1719 105.893 24.3913C107.566 24.5406 109.25 24.3181 110.829 23.7394C112.234 23.2312 112.719 23.5705 112.712 25.0763C112.712 25.6429 112.712 26.2111 112.661 26.773C112.598 27.4595 112.175 27.8778 111.535 28.083C109.493 28.7588 107.342 29.0316 105.198 28.8863C103.774 28.7964 102.376 28.588 101.049 28.0403C98.5686 27.0176 96.9678 25.1994 96.3634 22.6046C95.7352 19.8954 95.7171 17.0783 96.3103 14.3611C96.7241 12.4371 97.6144 10.9708 98.9028 9.92126C99.8602 9.14315 101.733 8.28297 102.92 8.12829C105.731 7.76212 108.855 7.6911 111.642 8.69964" fill="white"/>
<path d="M56.1624 1.54359C56.1661 1.13508 56.3284 0.744379 56.6144 0.455654C56.9004 0.16693 57.2871 0.0032944 57.6914 0H60.1903C60.5946 0.00370594 60.9814 0.167689 61.2674 0.456666C61.5533 0.745642 61.7156 1.13652 61.7193 1.54517C61.7193 8.5166 61.7505 15.537 61.7505 22.5084C61.7505 24.2729 61.9426 24.4923 63.6903 24.4576C64.8522 24.4339 65.2193 24.7969 65.224 25.9854C65.224 26.4794 65.2364 26.975 65.2005 27.4674C65.149 28.1588 64.8148 28.5991 64.1541 28.708C62.5923 28.9637 61.0165 29.1057 59.4562 28.708C57.4368 28.1966 56.2295 26.6657 56.1983 24.4466C56.1468 20.8259 56.1577 5.28894 56.1593 1.54044" fill="white"/>
<path d="M93.6846 9.52352C93.6908 9.32006 93.6559 9.11745 93.5819 8.92812C93.5079 8.73879 93.3964 8.56673 93.2543 8.4225C93.1121 8.27826 92.9423 8.16488 92.7553 8.08932C92.5682 8.01377 92.3679 7.97761 92.1665 7.98308H89.5927C88.5978 7.98308 88.1043 8.85747 88.1043 9.5251C88.1043 9.9986 88.1043 26.8708 88.1043 27.2954C88.0978 27.4989 88.1326 27.7016 88.2065 27.891C88.2804 28.0805 88.3919 28.2526 88.5341 28.3969C88.6763 28.5412 88.8462 28.6546 89.0333 28.73C89.2205 28.8055 89.4209 28.8415 89.6223 28.8358H92.2009C93.1958 28.8358 93.6877 27.9614 93.6877 27.2938C93.6877 26.8203 93.6877 9.94809 93.6877 9.52352" fill="white"/>
<path d="M132.817 27.2417C132.574 26.743 132.297 26.26 132.014 25.7834C130.44 23.1223 129.084 20.3255 127.284 17.8918C127.885 16.9274 128.489 16.0183 129.033 15.0729C129.957 13.4614 131.074 11.4428 131.968 9.81869C132.592 8.69019 132.185 7.98784 130.918 7.9689C130.065 7.95628 129.213 7.98784 128.36 7.95943C127.465 7.92945 126.879 8.32402 126.486 9.12265C125.784 10.5116 124.839 12.2714 124.088 13.6335C123.418 14.8472 122.433 15.5653 120.985 15.5275C120.615 15.518 120.505 15.4059 120.491 15.0887V13.5893C120.491 10.9172 120.491 3.11084 120.491 1.56409C120.498 1.36049 120.463 1.15775 120.389 0.968309C120.314 0.778871 120.203 0.606734 120.061 0.462475C119.918 0.318216 119.748 0.20488 119.561 0.129418C119.374 0.0539568 119.173 0.0179641 118.972 0.0236547H116.398C115.403 0.0236547 114.911 0.898041 114.911 1.56567V27.2844C114.904 27.4872 114.938 27.6894 115.01 27.8786C115.083 28.0679 115.193 28.2403 115.333 28.3853C115.474 28.5302 115.642 28.6448 115.828 28.722C116.013 28.7992 116.213 28.8374 116.414 28.8343H119.031C119.778 28.8343 120.477 28.2392 120.477 27.2844C120.477 27.046 120.498 22.8209 120.498 20.7612C120.498 20.2877 120.76 20.2182 120.887 20.2056C122.075 20.0841 122.984 20.4913 123.682 21.443C123.933 21.7891 124.163 22.1507 124.369 22.5257C125.33 24.2619 126.289 25.998 127.231 27.7452C127.632 28.487 128.202 28.8706 129.059 28.85C129.997 28.8216 130.923 28.85 131.855 28.85C132.867 28.85 133.279 28.1808 132.827 27.2559" fill="white"/>
<path d="M85.9068 16.5423C85.8998 15.5239 85.8063 14.5079 85.6272 13.5056C85.1774 11.0229 83.7281 9.27574 81.2542 8.52762C80.348 8.25608 79.4172 8.07684 78.4757 7.99257C76.4454 7.7937 74.4354 8.11094 72.5409 8.5876C72.4519 8.4205 72.3235 8.27811 72.1672 8.17297C72.0108 8.06782 71.8313 8.00316 71.6444 7.98468H68.9894C68.0288 7.98468 67.4275 8.70123 67.4275 9.45567V27.2843C67.4211 27.4844 67.4543 27.6837 67.5253 27.8706C67.5963 28.0575 67.7035 28.2281 67.8408 28.3724C67.9781 28.5167 68.1425 28.6318 68.3245 28.7108C68.5065 28.7899 68.7023 28.8313 68.9003 28.8327H71.5695C71.9667 28.8215 72.3436 28.6525 72.6185 28.3624C72.8933 28.0723 73.0439 27.6843 73.0375 27.2828C73.0375 27.2828 73.0375 14.6894 73.0532 13.4725C73.0501 13.3536 73.0772 13.236 73.1318 13.1307C73.1865 13.0254 73.267 12.9361 73.3655 12.8711C73.6114 12.7299 73.8737 12.6202 74.1464 12.5444C74.8664 12.2982 76.575 11.8926 77.9416 12.4403C78.3689 12.6087 78.7564 12.8659 79.0793 13.1951C79.4021 13.5243 79.653 13.9183 79.8158 14.3516C80.1287 15.1866 80.2932 16.0709 80.3015 16.9637C80.3015 17.6803 80.314 27.278 80.314 27.278C80.314 28.1572 81.0418 28.8327 81.7071 28.8327H84.3622C84.566 28.8341 84.768 28.795 84.9569 28.7175C85.1457 28.6399 85.3175 28.5256 85.4626 28.3809C85.6076 28.2362 85.723 28.0641 85.8022 27.8743C85.8814 27.6845 85.9228 27.4808 85.924 27.2749C85.924 27.2749 85.924 16.9006 85.924 16.5423" fill="white"/>
</g>
<defs>
<clipPath id="clip0_1766_17317">
<rect width="133" height="29" fill="white"/>
</clipPath>
</defs>
</svg>
