<svg width="22" height="18" viewBox="0 0 22 18" fill="none" xmlns="http://www.w3.org/2000/svg">
<path d="M2.5929 8.51953C2.59345 6.98989 3.16701 5.52301 4.18763 4.44098C5.20825 3.35896 6.5925 2.75025 8.03642 2.74851V0.967187C8.03679 0.831183 8.01001 0.696631 7.95783 0.57237C7.90564 0.448108 7.82923 0.336948 7.73362 0.246183C7.63801 0.155417 7.52536 0.0871011 7.40306 0.0457209C7.28076 0.00434059 7.15159 -0.00916798 7.02401 0.00608114C6.81101 0.0280329 6.59957 0.0645142 6.391 0.115298C4.88064 0.450398 3.49169 1.23448 2.38684 2.37571C1.28199 3.51694 0.506985 4.96805 0.152602 6.55908C0.0845578 6.86708 0.0660018 7.06257 0.0123915 7.38039C-0.00953115 7.52051 -0.00230236 7.66402 0.0335784 7.80087C0.0694592 7.93773 0.133125 8.06462 0.220121 8.1727C0.307117 8.28077 0.415344 8.36742 0.537239 8.42657C0.659135 8.48572 0.791756 8.51595 0.925829 8.51515H2.5929" fill="white"/>
<path d="M21.8221 9.61909C21.8225 8.92383 21.7684 8.22973 21.6602 7.54397C21.3612 5.76483 20.4859 4.42147 18.8085 3.85572C16.9023 3.21244 14.4517 3.20697 12.6434 4.04357C12.6034 4.05552 12.5621 4.0614 12.5207 4.06105C12.4789 4.06122 12.4372 4.05534 12.397 4.04357C11.3371 3.55319 10.0577 3.40903 8.79475 3.3992C6.13794 3.37844 4.02651 4.67703 3.41309 7.35939C3.25947 8.03108 3.22442 8.92557 3.21823 9.618C3.19968 11.9596 3.21205 14.4989 3.21205 16.8405C3.21205 17.1244 3.31829 17.3967 3.50748 17.5977C3.69668 17.7988 3.95339 17.9121 4.22136 17.913H5.86473C5.99752 17.9133 6.12907 17.8858 6.25178 17.832C6.3745 17.7782 6.48596 17.6993 6.57977 17.5997C6.67357 17.5001 6.74787 17.3819 6.79837 17.2518C6.84888 17.1217 6.8746 16.9823 6.87405 16.8416C6.87405 16.574 6.87405 11.881 6.88951 9.72722C6.88721 9.24219 6.93073 8.75813 7.01942 8.28228C7.22561 7.24909 7.74109 6.69973 8.73804 6.5927C9.29556 6.51719 9.86198 6.60285 10.3773 6.84061C10.4284 6.8691 10.4718 6.91093 10.5034 6.96216C10.5349 7.01338 10.5536 7.0723 10.5577 7.13332C10.5577 7.13332 10.602 16.218 10.602 16.8416C10.6019 16.9823 10.6279 17.1216 10.6786 17.2517C10.7293 17.3817 10.8037 17.4999 10.8975 17.5995C10.9914 17.6991 11.1028 17.7782 11.2254 17.8321C11.3481 17.8861 11.4796 17.914 11.6124 17.9141H13.4269C13.5603 17.9157 13.6926 17.8891 13.8161 17.8357C13.9396 17.7824 14.0518 17.7035 14.1462 17.6036C14.2405 17.5037 14.315 17.3848 14.3653 17.2539C14.4157 17.1231 14.4408 16.9829 14.4393 16.8416C14.4393 16.3567 14.4506 8.71368 14.4506 7.15516C14.4506 6.97714 14.4847 6.87556 14.5785 6.82751C15.1293 6.61389 15.718 6.5322 16.3023 6.58832C17.2951 6.69754 17.8137 7.24363 18.0209 8.27791C18.1106 8.7536 18.1541 9.23777 18.1508 9.72285C18.1508 10.2045 18.158 11.5009 18.158 11.5009V16.8372C18.1562 16.9793 18.1813 17.1204 18.2317 17.2521C18.2821 17.3838 18.3568 17.5034 18.4516 17.6041C18.5463 17.7047 18.659 17.7843 18.7832 17.8381C18.9073 17.8919 19.0404 17.9189 19.1745 17.9174H20.8241C20.9568 17.9171 21.0882 17.8891 21.2107 17.835C21.3332 17.7808 21.4444 17.7016 21.5379 17.6019C21.6315 17.5022 21.7056 17.3839 21.7559 17.2538C21.8063 17.1237 21.8319 16.9844 21.8313 16.8438C21.8313 14.5022 21.8447 11.9629 21.8252 9.62128" fill="white"/>
</svg>
