<svg width="111" height="25" viewBox="0 0 111 25" fill="none" xmlns="http://www.w3.org/2000/svg">
<g clip-path="url(#clip0_2511_5684)">
<path d="M3.27822 13.5667C3.27891 11.7373 4.00406 9.98301 5.29444 8.68894C6.58482 7.39488 8.33493 6.66688 10.1605 6.66481V4.53441C10.161 4.37175 10.1271 4.21083 10.0611 4.06222C9.99514 3.91361 9.89853 3.78066 9.77765 3.67211C9.65677 3.56356 9.51434 3.48186 9.35972 3.43237C9.2051 3.38288 9.04179 3.36672 8.8805 3.38496C8.6112 3.41121 8.34387 3.45484 8.08017 3.51558C6.17062 3.91635 4.41457 4.85408 3.0177 6.21895C1.62083 7.58382 0.640983 9.3193 0.192935 11.2221C0.106907 11.5905 0.0834465 11.8243 0.0156666 12.2044C-0.0120503 12.372 -0.00291088 12.5436 0.0424534 12.7073C0.0878176 12.8709 0.16831 13.0227 0.2783 13.1519C0.388289 13.2812 0.525122 13.3848 0.679234 13.4556C0.833347 13.5263 1.00102 13.5625 1.17053 13.5615H3.27822" fill="#FAA63D"/>
<path d="M34.1531 18.0143C34.2548 19.8561 35.3732 21.0708 37.2175 21.3347C38.9446 21.5828 40.6287 21.3347 42.2802 20.8122C42.4882 20.7398 42.7013 20.6826 42.9176 20.6411C43.3673 20.5666 43.7401 20.7717 43.7726 21.2158C43.8274 21.925 43.8248 22.6374 43.7648 23.3462C43.7218 23.8295 43.3216 24.0868 42.8759 24.2266C41.2328 24.7567 39.5092 24.9919 37.7846 24.9215C36.4459 24.8627 35.1268 24.7007 33.8742 24.1965C31.3976 23.2051 30.0016 21.3477 29.634 18.734C29.3733 16.9054 29.3499 15.0493 29.7161 13.2245C30.3066 10.2921 32.0976 8.47389 34.9965 7.8012C37.185 7.29309 39.3761 7.31268 41.4877 8.16432C44.8467 9.51623 45.6353 12.8366 44.659 15.5639C44.0998 17.1313 42.8159 17.8301 41.2557 17.9229C39.3956 18.0326 37.5265 17.9921 35.6599 18.0143C35.1698 18.0143 34.6784 18.0143 34.157 18.0143H34.1531ZM34.157 14.7292C35.8672 14.7292 37.546 14.7488 39.2314 14.7201C39.8688 14.7083 40.1816 14.3805 40.308 13.8632C40.4391 13.3587 40.3897 12.824 40.1685 12.3521C39.9473 11.8802 39.5683 11.5008 39.0971 11.2796C36.687 10.1393 33.9407 12.0424 34.157 14.7292Z" fill="#002541"/>
<path d="M27.5905 14.882C27.591 14.0505 27.5226 13.2204 27.3858 12.4002C27.0078 10.2724 25.9012 8.66582 23.7805 7.98921C21.3704 7.21986 18.2721 7.21333 15.9858 8.21387C15.9353 8.22816 15.8831 8.23519 15.8307 8.23477C15.7778 8.23498 15.7252 8.22794 15.6743 8.21387C14.3343 7.62739 12.7167 7.45497 11.12 7.44322C7.76097 7.4184 5.09148 8.97146 4.31592 12.1795C4.12171 12.9828 4.07739 14.0526 4.06957 14.8807C4.04611 17.6812 4.06175 20.7181 4.06175 23.5185C4.06175 23.8581 4.19607 24.1837 4.43527 24.4241C4.67447 24.6646 4.99903 24.8002 5.33783 24.8012H7.41555C7.58344 24.8016 7.74975 24.7686 7.9049 24.7043C8.06005 24.64 8.20098 24.5456 8.31957 24.4265C8.43817 24.3074 8.5321 24.166 8.59595 24.0104C8.65981 23.8548 8.69233 23.6881 8.69164 23.5198C8.69164 23.1998 8.69163 17.5871 8.71118 15.0113C8.70828 14.4312 8.7633 13.8523 8.87542 13.2832C9.13611 12.0475 9.78784 11.3905 11.0483 11.2625C11.7532 11.1722 12.4693 11.2747 13.1208 11.559C13.1854 11.5931 13.2403 11.6431 13.2802 11.7044C13.3201 11.7657 13.3438 11.8361 13.3489 11.9091C13.3489 11.9091 13.4049 22.774 13.4049 23.5198C13.4048 23.6881 13.4377 23.8548 13.5018 24.0103C13.5659 24.1658 13.6599 24.3072 13.7785 24.4263C13.8972 24.5454 14.038 24.6399 14.1931 24.7045C14.3482 24.769 14.5144 24.8024 14.6823 24.8025H16.9764C17.145 24.8045 17.3124 24.7726 17.4685 24.7088C17.6247 24.645 17.7666 24.5506 17.8858 24.4311C18.005 24.3116 18.0993 24.1695 18.1629 24.013C18.2265 23.8565 18.2583 23.6888 18.2564 23.5198C18.2564 22.9399 18.2708 13.7992 18.2708 11.9352C18.2708 11.7223 18.3138 11.6008 18.4324 11.5434C19.1288 11.2879 19.8731 11.1902 20.6118 11.2573C21.867 11.3879 22.5226 12.041 22.7846 13.278C22.8981 13.8469 22.9531 14.4259 22.9489 15.0061C22.9489 15.5821 22.958 17.1326 22.958 17.1326V23.5146C22.9557 23.6846 22.9874 23.8532 23.0511 24.0107C23.1149 24.1683 23.2094 24.3114 23.3291 24.4317C23.4489 24.5521 23.5914 24.6473 23.7484 24.7116C23.9054 24.776 24.0736 24.8082 24.2432 24.8064H26.3287C26.4965 24.8061 26.6626 24.7726 26.8175 24.7079C26.9723 24.6431 27.1129 24.5484 27.2312 24.4291C27.3495 24.3099 27.4432 24.1684 27.5068 24.0128C27.5705 23.8572 27.6029 23.6906 27.6022 23.5225C27.6022 20.722 27.6192 17.6851 27.5944 14.8846" fill="#002541"/>
<path d="M93.1763 8.13295C93.6729 8.31059 94.064 8.79389 94.0627 9.56976C94.0743 10.1287 94.0525 10.6879 93.9975 11.2443C93.9362 11.7511 93.5556 11.9719 93.0473 11.8439C92.273 11.6492 91.5118 11.3841 90.7297 11.2339C89.7452 11.0329 88.7299 11.0378 87.7474 11.2482C86.0672 11.6218 85.0101 12.685 84.8381 14.3726C84.7219 15.4865 84.7158 16.6092 84.8198 17.7243C85.0167 19.7267 86.3475 20.9389 88.377 21.1204C89.7728 21.244 91.1787 21.0599 92.4959 20.581C93.669 20.1604 94.0731 20.4412 94.0679 21.6873C94.0679 22.1562 94.0679 22.6265 94.0249 23.0915C93.9727 23.6597 93.6195 24.0058 93.0851 24.1756C91.3812 24.735 89.5859 24.9607 87.7969 24.8405C86.6082 24.766 85.4416 24.5936 84.3337 24.1404C82.2638 23.2939 80.9277 21.7892 80.4233 19.6418C79.899 17.3997 79.8839 15.0683 80.379 12.8196C80.7244 11.2273 81.4673 10.0139 82.5427 9.14525C83.3417 8.5013 84.9046 7.78942 85.8952 7.66142C88.2414 7.35838 90.8483 7.2996 93.175 8.13426" fill="#002541"/>
<path d="M46.8725 2.21203C46.8755 1.87395 47.011 1.55061 47.2497 1.31166C47.4884 1.07272 47.8112 0.937297 48.1485 0.93457H50.2341C50.5716 0.937637 50.8944 1.07335 51.133 1.3125C51.3717 1.55165 51.5071 1.87514 51.5102 2.21334C51.5102 7.98279 51.5362 13.7927 51.5362 19.5622C51.5362 21.0225 51.6966 21.2041 53.1551 21.1754C54.1249 21.1558 54.4312 21.4562 54.4351 22.4397C54.4351 22.8486 54.4456 23.2587 54.4156 23.6663C54.3726 24.2384 54.0936 24.6028 53.5423 24.6929C52.2388 24.9045 50.9236 25.0221 49.6215 24.6929C47.9361 24.2697 46.9285 23.0027 46.9024 21.1662C46.8594 18.1698 46.8686 5.31163 46.8699 2.20942" fill="#002541"/>
<path d="M78.1882 8.81606C78.1934 8.64768 78.1642 8.48 78.1024 8.32332C78.0407 8.16663 77.9476 8.02424 77.829 7.90487C77.7104 7.7855 77.5687 7.69167 77.4126 7.62914C77.2565 7.56661 77.0893 7.53669 76.9212 7.54122H74.7731C73.9428 7.54122 73.5309 8.26485 73.5309 8.81737C73.5309 9.20923 73.5309 23.1724 73.5309 23.5238C73.5255 23.6922 73.5545 23.86 73.6162 24.0168C73.6779 24.1735 73.771 24.316 73.8896 24.4354C74.0083 24.5548 74.1501 24.6486 74.3063 24.7111C74.4625 24.7736 74.6298 24.8034 74.7979 24.7986H76.9499C77.7802 24.7986 78.1908 24.075 78.1908 23.5225C78.1908 23.1306 78.1908 9.16743 78.1908 8.81606" fill="#002541"/>
<path d="M110.847 23.4794C110.644 23.0666 110.413 22.667 110.177 22.2725C108.863 20.0702 107.732 17.7557 106.229 15.7415C106.731 14.9434 107.235 14.1911 107.689 13.4087C108.461 12.075 109.393 10.4044 110.138 9.06033C110.66 8.1264 110.319 7.54515 109.262 7.52947C108.551 7.51902 107.839 7.54515 107.127 7.52164C106.38 7.49682 105.892 7.82337 105.563 8.4843C104.978 9.63375 104.189 11.0902 103.562 12.2174C103.003 13.2219 102.181 13.8162 100.972 13.7848C100.663 13.777 100.572 13.6843 100.56 13.4217V12.1808C100.56 9.96944 100.56 3.50901 100.56 2.22894C100.566 2.06044 100.536 1.89266 100.475 1.73588C100.413 1.5791 100.32 1.43664 100.201 1.31726C100.082 1.19787 99.9402 1.10408 99.7839 1.04162C99.6276 0.979174 99.4603 0.949387 99.2921 0.954096H97.144C96.3137 0.954096 95.9031 1.67773 95.9031 2.23025V23.5147C95.8971 23.6825 95.9252 23.8499 95.9858 24.0065C96.0463 24.1631 96.138 24.3058 96.2553 24.4258C96.3726 24.5458 96.513 24.6406 96.6681 24.7045C96.8231 24.7683 96.9895 24.7999 97.1571 24.7974H99.3417C99.9647 24.7974 100.549 24.3049 100.549 23.5147C100.549 23.3174 100.566 19.8208 100.566 18.1162C100.566 17.7243 100.785 17.6668 100.89 17.6564C101.882 17.5558 102.641 17.8928 103.223 18.6804C103.433 18.9669 103.624 19.2662 103.797 19.5765C104.599 21.0133 105.399 22.4501 106.185 23.8961C106.52 24.51 106.996 24.8274 107.711 24.8104C108.493 24.7869 109.266 24.8104 110.044 24.8104C110.889 24.8104 111.233 24.2566 110.855 23.4912" fill="#002541"/>
<path d="M71.6966 14.6248C71.6908 13.782 71.6127 12.9412 71.4633 12.1117C71.0879 10.0571 69.8783 8.61112 67.8136 7.99199C67.0573 7.76727 66.2805 7.61893 65.4948 7.54918C63.8003 7.3846 62.1227 7.64715 60.5416 8.04162C60.4673 7.90334 60.3602 7.78549 60.2297 7.69848C60.0992 7.61146 59.9494 7.55795 59.7934 7.54266H57.5776C56.7759 7.54266 56.2741 8.13567 56.2741 8.76003V23.5148C56.2687 23.6804 56.2964 23.8453 56.3557 24C56.4149 24.1546 56.5044 24.2958 56.619 24.4153C56.7336 24.5347 56.8708 24.6299 57.0227 24.6953C57.1746 24.7607 57.338 24.795 57.5033 24.7962H59.7309C60.0624 24.7869 60.377 24.6471 60.6064 24.407C60.8357 24.1669 60.9614 23.8458 60.9561 23.5135C60.9561 23.5135 60.9561 13.0914 60.9692 12.0843C60.9666 11.9859 60.9892 11.8886 61.0348 11.8014C61.0805 11.7143 61.1476 11.6404 61.2298 11.5866C61.4351 11.4698 61.654 11.3789 61.8816 11.3162C62.4825 11.1125 63.9085 10.7768 65.049 11.23C65.4056 11.3695 65.729 11.5823 65.9985 11.8547C66.2679 12.1272 66.4773 12.4532 66.6131 12.8118C66.8743 13.5029 67.0116 14.2347 67.0185 14.9736C67.0185 15.5666 67.0289 23.5096 67.0289 23.5096C67.0289 24.2371 67.6363 24.7962 68.1916 24.7962H70.4075C70.5776 24.7974 70.7462 24.765 70.9038 24.7008C71.0614 24.6367 71.2048 24.542 71.3259 24.4223C71.4469 24.3026 71.5432 24.1601 71.6093 24.003C71.6754 23.846 71.7099 23.6774 71.711 23.507C71.711 23.507 71.711 14.9213 71.711 14.6248" fill="#002541"/>
</g>
<defs>
<clipPath id="clip0_2511_5684">
<rect width="111" height="24" fill="white" transform="translate(0 0.93457)"/>
</clipPath>
</defs>
</svg>
