<svg width="22" height="18" viewBox="0 0 22 18" fill="none" xmlns="http://www.w3.org/2000/svg">
<path d="M2.5929 8.56103C2.59345 7.0314 3.16701 5.56451 4.18763 4.48249C5.20825 3.40046 6.5925 2.79175 8.03642 2.79002V1.00869C8.03679 0.872687 8.01001 0.738135 7.95783 0.613874C7.90564 0.489612 7.82923 0.378452 7.73362 0.287687C7.63801 0.196921 7.52536 0.128605 7.40306 0.0872248C7.28076 0.0458445 7.15159 0.0323359 7.02401 0.047585C6.81101 0.0695368 6.59957 0.106018 6.391 0.156802C4.88064 0.491902 3.49169 1.27599 2.38684 2.41721C1.28199 3.55844 0.506985 5.00956 0.152602 6.60059C0.0845578 6.90858 0.0660018 7.10407 0.0123915 7.42189C-0.00953115 7.56202 -0.00230236 7.70552 0.0335784 7.84238C0.0694592 7.97923 0.133125 8.10613 0.220121 8.2142C0.307117 8.32228 0.415344 8.40892 0.537239 8.46807C0.659135 8.52722 0.791756 8.55746 0.925829 8.55666H2.5929" fill="#F8A63E"/>
<path d="M21.8225 9.66072C21.823 8.96545 21.7688 8.27136 21.6607 7.5856C21.3617 5.80646 20.4864 4.46309 18.809 3.89735C16.9027 3.25406 14.4521 3.2486 12.6438 4.0852C12.6039 4.09715 12.5626 4.10303 12.5211 4.10268C12.4793 4.10285 12.4377 4.09697 12.3974 4.0852C11.3376 3.59482 10.0581 3.45065 8.79521 3.44082C6.1384 3.42007 4.02697 4.71866 3.41355 7.40102C3.25993 8.0727 3.22488 8.9672 3.21869 9.65963C3.20013 12.0012 3.21251 14.5405 3.21251 16.8821C3.2125 17.166 3.31874 17.4383 3.50794 17.6394C3.69714 17.8404 3.95385 17.9538 4.22182 17.9546H5.86519C5.99798 17.9549 6.12953 17.9274 6.25224 17.8736C6.37495 17.8199 6.48642 17.7409 6.58023 17.6413C6.67403 17.5418 6.74832 17.4235 6.79883 17.2934C6.84933 17.1633 6.87505 17.0239 6.87451 16.8832C6.87451 16.6156 6.87451 11.9226 6.88997 9.76885C6.88767 9.28382 6.93119 8.79976 7.01987 8.3239C7.22607 7.29071 7.74155 6.74136 8.7385 6.63432C9.29602 6.55881 9.86244 6.64447 10.3777 6.88224C10.4288 6.91072 10.4722 6.95256 10.5038 7.00378C10.5354 7.05501 10.5541 7.11392 10.5582 7.17495C10.5582 7.17495 10.6025 16.2596 10.6025 16.8832C10.6024 17.0239 10.6284 17.1633 10.6791 17.2933C10.7298 17.4234 10.8042 17.5416 10.898 17.6412C10.9918 17.7407 11.1032 17.8198 11.2259 17.8738C11.3485 17.9277 11.48 17.9556 11.6128 17.9557H13.4273C13.5607 17.9573 13.6931 17.9307 13.8166 17.8774C13.9401 17.824 14.0523 17.7451 14.1466 17.6452C14.2409 17.5453 14.3155 17.4264 14.3658 17.2956C14.4161 17.1647 14.4413 17.0245 14.4398 16.8832C14.4398 16.3983 14.4511 8.75531 14.4511 7.19679C14.4511 7.01876 14.4851 6.91719 14.5789 6.86914C15.1298 6.65552 15.7185 6.57383 16.3027 6.62995C17.2955 6.73917 17.8141 7.28525 18.0213 8.31954C18.111 8.79523 18.1546 9.27939 18.1512 9.76447C18.1512 10.2461 18.1585 11.5425 18.1585 11.5425V16.8789C18.1567 17.021 18.1817 17.162 18.2321 17.2937C18.2825 17.4254 18.3573 17.5451 18.452 17.6457C18.5467 17.7463 18.6595 17.8259 18.7836 17.8797C18.9078 17.9335 19.0409 17.9605 19.175 17.959H20.8246C20.9573 17.9587 21.0886 17.9307 21.2111 17.8766C21.3336 17.8224 21.4448 17.7432 21.5384 17.6435C21.6319 17.5438 21.706 17.4255 21.7564 17.2954C21.8067 17.1653 21.8323 17.026 21.8318 16.8854C21.8318 14.5438 21.8452 12.0045 21.8256 9.6629" fill="#002541"/>
</svg>
