<svg width="24" height="25" viewBox="0 0 24 25" fill="none" xmlns="http://www.w3.org/2000/svg">
<path d="M4 9.80566H9C9 8.70566 8.1 7.80566 7 7.80566H4C3.45 7.80566 3 8.25566 3 8.80566C3 9.35566 3.45 9.80566 4 9.80566Z" fill="#002541"/>
<path d="M22 14.8655V8.80549C22 7.70549 21.1 6.80549 20 6.80549H13.71L12.65 5.74549L14.06 4.33549L13.35 3.62549L9.82 7.15549L10.53 7.86549L11.94 6.45549L13 7.51549V9.80549C13 10.9055 12.1 11.8055 11 11.8055H8.96C8.74 11.6455 8.51 11.5055 8.27 11.3755L7.87 12.2655L7.41 12.0555L7.81 11.1555C7.26 10.9355 6.64 10.8055 6 10.8055C5.47 10.8055 4.96 10.9155 4.48 11.0655L4.82 11.9755L4.35 12.1555L4 11.2255C2.94 11.6855 2.09 12.5055 1.57 13.5355L2.46 13.9355L2.25 14.3955L1.35 13.9955C1.13 14.5455 1 15.1655 1 15.8055C1 16.3355 1.11 16.8455 1.26 17.3255L2.17 16.9855L2.35 17.4555L1.42 17.8055C1.88 18.8655 2.7 19.7155 3.73 20.2355L4.13 19.3455L4.59 19.5555L4.19 20.4555C4.74 20.6755 5.36 20.8055 6 20.8055C6.53 20.8055 7.04 20.6955 7.52 20.5455L7.18 19.6355L7.65 19.4555L8 20.3855C9.06 19.9255 9.91 19.1055 10.43 18.0755L9.54 17.6755L9.75 17.2155L10.65 17.6155C10.75 17.3555 10.83 17.0755 10.89 16.7955H16.05C16.03 16.9655 16 17.1355 16 17.3055C16 19.2355 17.57 20.8055 19.5 20.8055C21.43 20.8055 23 19.2355 23 17.3055C23 16.3555 22.62 15.4955 22 14.8655ZM6 18.8055C4.34 18.8055 3 17.4655 3 15.8055C3 14.1455 4.34 12.8055 6 12.8055C7.66 12.8055 9 14.1455 9 15.8055C9 17.4655 7.66 18.8055 6 18.8055ZM10.87 14.8055C10.83 14.6255 10.79 14.4555 10.74 14.2855L9.83 14.6255L9.65 14.1555L10.58 13.8055H11C13.21 13.8055 15 12.0155 15 9.80549V8.80549H20V13.8555C19.84 13.8355 19.67 13.8055 19.5 13.8055C18.55 13.8055 17.69 14.1855 17.06 14.8055H10.87ZM19.5 18.8055C18.67 18.8055 18 18.1355 18 17.3055C18 16.4755 18.67 15.8055 19.5 15.8055C20.33 15.8055 21 16.4755 21 17.3055C21 18.1355 20.33 18.8055 19.5 18.8055Z" fill="#002541"/>
</svg>
