<svg width="18" height="18" viewBox="0 0 18 18" fill="none" xmlns="http://www.w3.org/2000/svg">
<path d="M13.2971 9.01492L16.2821 6.02992C16.5746 5.73742 16.5746 5.26492 16.2821 4.97242L13.0271 1.71742C12.7346 1.42492 12.2621 1.42492 11.9696 1.71742L8.98465 4.70242L5.99965 1.71742C5.84965 1.57492 5.66215 1.49992 5.46715 1.49992C5.27965 1.49992 5.08465 1.57492 4.94215 1.71742L1.68715 4.97242C1.39465 5.26492 1.39465 5.73742 1.68715 6.02992L4.67215 9.01492L1.68715 11.9999C1.39465 12.2924 1.39465 12.7649 1.68715 13.0574L4.94215 16.3124C5.23465 16.6049 5.70715 16.6049 5.99965 16.3124L8.98465 13.3274L11.9696 16.3124C12.1196 16.4624 12.3071 16.5299 12.5021 16.5299C12.6971 16.5299 12.8846 16.4549 13.0346 16.3124L16.2896 13.0574C16.5821 12.7649 16.5821 12.2924 16.2896 11.9999L13.2971 9.01492ZM8.99965 6.74992C9.41215 6.74992 9.74965 7.08742 9.74965 7.49992C9.74965 7.91242 9.41215 8.24992 8.99965 8.24992C8.58715 8.24992 8.24965 7.91242 8.24965 7.49992C8.24965 7.08742 8.58715 6.74992 8.99965 6.74992ZM5.46715 8.21992L2.74465 5.50492L5.46715 2.78242L8.18215 5.49742L5.46715 8.21992ZM7.49965 9.74992C7.08715 9.74992 6.74965 9.41242 6.74965 8.99992C6.74965 8.58742 7.08715 8.24992 7.49965 8.24992C7.91215 8.24992 8.24965 8.58742 8.24965 8.99992C8.24965 9.41242 7.91215 9.74992 7.49965 9.74992ZM8.99965 11.2499C8.58715 11.2499 8.24965 10.9124 8.24965 10.4999C8.24965 10.0874 8.58715 9.74992 8.99965 9.74992C9.41215 9.74992 9.74965 10.0874 9.74965 10.4999C9.74965 10.9124 9.41215 11.2499 8.99965 11.2499ZM10.4996 8.24992C10.9121 8.24992 11.2496 8.58742 11.2496 8.99992C11.2496 9.41242 10.9121 9.74992 10.4996 9.74992C10.0871 9.74992 9.74965 9.41242 9.74965 8.99992C9.74965 8.58742 10.0871 8.24992 10.4996 8.24992ZM12.4946 15.2549L9.77215 12.5399L12.4946 9.81742L15.2096 12.5324L12.4946 15.2549Z" fill="#A8A8A8"/>
</svg>
