<svg width="24" height="24" viewBox="0 0 24 24" fill="none" xmlns="http://www.w3.org/2000/svg">
<path d="M2 22L16 17L7 8L2 22ZM12.35 16.18L5.3 18.7L7.82 11.65L12.35 16.18Z" fill="#002541"/>
<path d="M14.5297 12.5296L20.1197 6.93965C20.6097 6.44965 21.3997 6.44965 21.8897 6.93965L22.4797 7.52965L23.5397 6.46965L22.9497 5.87965C21.8797 4.80965 20.1297 4.80965 19.0597 5.87965L13.4697 11.4696L14.5297 12.5296Z" fill="#002541"/>
<path d="M10.0597 6.87996L9.46973 7.46996L10.5297 8.52996L11.1197 7.93996C12.1897 6.86996 12.1897 5.11996 11.1197 4.04996L10.5297 3.45996L9.46973 4.52996L10.0597 5.11996C10.5397 5.59996 10.5397 6.39996 10.0597 6.87996Z" fill="#002541"/>
<path d="M17.0597 11.8796L15.4697 13.4696L16.5297 14.5296L18.1197 12.9396C18.6097 12.4496 19.3997 12.4496 19.8897 12.9396L21.4997 14.5496L22.5597 13.4896L20.9497 11.8796C19.8697 10.8096 18.1297 10.8096 17.0597 11.8796Z" fill="#002541"/>
<path d="M15.0597 5.87996L11.4697 9.46996L12.5297 10.53L16.1197 6.93996C17.1897 5.86996 17.1897 4.11996 16.1197 3.04996L14.5297 1.45996L13.4697 2.51996L15.0597 4.10996C15.5397 4.59996 15.5397 5.39996 15.0597 5.87996Z" fill="#002541"/>
</svg>
