<svg width="24" height="25" viewBox="0 0 24 25" fill="none" xmlns="http://www.w3.org/2000/svg">
<path d="M11.9995 2.34912C6.48953 2.34912 2.01953 6.81912 2.01953 12.3291C2.01953 17.8391 6.48953 22.3091 11.9995 22.3091C17.5095 22.3091 21.9795 17.8391 21.9795 12.3291C21.9795 6.81912 17.5095 2.34912 11.9995 2.34912ZM11.9995 20.3091C7.59953 20.3091 4.01953 16.7291 4.01953 12.3291C4.01953 7.92912 7.59953 4.34912 11.9995 4.34912C16.3995 4.34912 19.9795 7.92912 19.9795 12.3291C19.9795 16.7291 16.3995 20.3091 11.9995 20.3091ZM12.7495 5.32912L8.24953 13.8291H11.3895V19.3291L15.7495 10.8291H12.7495V5.32912Z" fill="#002541"/>
</svg>
