<?xml version="1.0" encoding="UTF-8" standalone="no"?>
<svg
   xmlns:dc="http://purl.org/dc/elements/1.1/"
   xmlns:cc="http://creativecommons.org/ns#"
   xmlns:rdf="http://www.w3.org/1999/02/22-rdf-syntax-ns#"
   xmlns:svg="http://www.w3.org/2000/svg"
   xmlns="http://www.w3.org/2000/svg"
   xmlns:sodipodi="http://sodipodi.sourceforge.net/DTD/sodipodi-0.dtd"
   xmlns:inkscape="http://www.inkscape.org/namespaces/inkscape"
   width="30"
   height="30"
   viewBox="0 0 30 30"
   fill="none"
   version="1.1"
   id="svg869"
   sodipodi:docname="facebook.svg"
   inkscape:version="1.0.2 (e86c8708, 2021-01-15)">
  <metadata
     id="metadata873">
    <rdf:RDF>
      <cc:Work
         rdf:about="">
        <dc:format>image/svg+xml</dc:format>
        <dc:type
           rdf:resource="http://purl.org/dc/dcmitype/StillImage" />
      </cc:Work>
    </rdf:RDF>
  </metadata>
  <sodipodi:namedview
     pagecolor="#ffffff"
     bordercolor="#666666"
     borderopacity="1"
     objecttolerance="10"
     gridtolerance="10"
     guidetolerance="10"
     inkscape:pageopacity="0"
     inkscape:pageshadow="2"
     inkscape:window-width="689"
     inkscape:window-height="480"
     id="namedview871"
     showgrid="false"
     inkscape:zoom="26.8"
     inkscape:cx="15"
     inkscape:cy="15"
     inkscape:window-x="0"
     inkscape:window-y="25"
     inkscape:window-maximized="0"
     inkscape:current-layer="svg869" />
  <path
     id="Caminho 10389"
     d="M 29.2994,8.62601 C 29.2759,7.42347 29.0477,6.2337 28.6248,5.10772 28.2513,4.14473 27.681,3.2702 26.9504,2.53997 26.2198,1.80974 25.3449,1.23987 24.3816,0.866737 23.2553,0.444373 22.0653,0.216296 20.8626,0.192232 19.3094,0.119346 18.8164,0.102051 14.8785,0.102051 c -3.9379,0 -4.4334,0.017295 -5.97795,0.085239 C 7.69699,0.210201 6.50613,0.437879 5.37903,0.86056 4.40991,1.22507 3.53258,1.79774 2.80894,2.53817 2.07309,3.26263 1.50313,4.13803 1.13838,5.10401 c -0.422862,1.1273 -0.650994,2.31826 -0.674645,3.522 -0.074137,1.54909 -0.0902,2.04209 -0.0902,5.97909 0,3.9371 0.017299,4.43 0.085258,5.9767 0.023518,1.2025 0.251661,2.3923 0.674647,3.5183 0.37355,0.9635 0.9441,1.8384 1.67515,2.5689 0.73105,0.7305 1.60653,1.3004 2.57044,1.6733 1.12637,0.4224 2.3163,0.6504 3.51905,0.6745 1.54702,0.068 2.04002,0.0852 5.97792,0.0852 3.9379,0 4.4309,-0.0172 5.9779,-0.0852 1.2028,-0.0235 2.3929,-0.2516 3.5191,-0.6745 0.9625,-0.3733 1.8365,-0.9434 2.5659,-1.6739 0.7294,-0.7305 1.2981,-1.6053 1.6698,-2.5683 0.4223,-1.1262 0.6504,-2.3158 0.6746,-3.5183 0.068,-1.5467 0.0853,-2.0396 0.0853,-5.9767 0,-3.937 0,-4.43 -0.0741,-5.97662 z M 26.6873,20.4657 c -0.008,0.9187 -0.1752,1.829 -0.4942,2.6906 -0.2418,0.6255 -0.6117,1.1937 -1.086,1.6679 -0.4743,0.4742 -1.0425,0.844 -1.6682,1.0857 -0.862,0.3184 -1.7724,0.4856 -2.6912,0.4941 -1.5297,0.068 -1.9894,0.0853 -5.8593,0.0853 -3.87,0 -4.3346,-0.0173 -5.85935,-0.0853 C 8.11016,26.3961 7.19961,26.2289 6.33787,25.9099 5.70841,25.6788 5.1391,25.309 4.67226,24.8277 4.19215,24.36 3.82238,23.7911 3.58985,23.1625 3.27139,22.3007 3.10418,21.3905 3.09561,20.4718 3.02765,18.9425 3.01035,18.4829 3.01035,14.6138 c 0,-3.8692 0.0173,-4.3336 0.08526,-5.85808 C 3.10351,7.83703 3.27074,6.92667 3.58985,6.06512 3.82104,5.43435 4.19339,4.86475 4.67844,4.39986 5.14469,3.91878 5.71246,3.5478 6.34034,3.31398 7.20228,2.99567 8.11271,2.82851 9.03152,2.81984 10.5612,2.75189 11.0209,2.7346 14.8908,2.7346 c 3.87,0 4.3346,0.01729 5.8593,0.08524 0.9189,0.00797 1.8295,0.17516 2.6912,0.49414 0.6295,0.23097 1.1989,0.60086 1.6656,1.08217 0.4802,0.46774 0.85,1.03663 1.0824,1.66526 0.3185,0.86174 0.4857,1.77198 0.4943,2.69061 0.068,1.52938 0.0853,1.98888 0.0853,5.85808 0,3.8691 -0.0173,4.3237 -0.0853,5.8519 z"
     fill="#002541" />
  <path
     id="facebook (1)"
     d="m 17.5018,9.00729 h 1.5779 V 6.26109 C 18.3165,6.17666 17.5492,6.13541 16.7814,6.13756 16.2505,6.1078 15.7195,6.19438 15.2255,6.39125 14.7316,6.58812 14.2866,6.89052 13.9217,7.2773 13.5569,7.66407 13.281,8.12588 13.1133,8.63041 12.9456,9.13494 12.8902,9.67001 12.951,10.1982 v 2.42 h -2.5145 v 3.0711 h 2.5108 v 7.7297 h 3.0779 v -7.7284 h 2.4095 l 0.383,-3.0724 h -2.7925 v -2.1161 c 0,-0.88825 0.2397,-1.49604 1.4828,-1.49604 z"
     fill="#002541" />
  <defs
     id="defs867" />
</svg>
