<svg width="24" height="25" viewBox="0 0 24 25" fill="none" xmlns="http://www.w3.org/2000/svg">
<path d="M22 7.59863V5.59863H19V2.59863H17V5.59863H13V2.59863H11V5.59863H7V2.59863H5V5.59863H2V7.59863H5V11.5986H2V13.5986H5V17.5986H2V19.5986H5V22.5986H7V19.5986H11V22.5986H13V19.5986H17V22.5986H19V19.5986H22V17.5986H19V13.5986H22V11.5986H19V7.59863H22ZM7 7.59863H11V11.5986H7V7.59863ZM7 17.5986V13.5986H11V17.5986H7ZM17 17.5986H13V13.5986H17V17.5986ZM17 11.5986H13V7.59863H17V11.5986Z" fill="#002541"/>
</svg>
