<svg width="24" height="25" viewBox="0 0 24 25" fill="none" xmlns="http://www.w3.org/2000/svg">
<path d="M17.3086 11.9727C15.2734 11.9727 13.6172 13.6288 13.6172 15.6641C13.6172 16.4412 13.8567 17.1848 14.316 17.8229L16.8868 21.2889C16.9862 21.4217 17.1428 21.5 17.3086 21.5H17.3091C17.475 21.5 17.6315 21.4212 17.7309 21.2883L20.4057 17.6704C20.7945 17.0731 21 16.3794 21 15.6641C21 13.6288 19.3438 11.9727 17.3086 11.9727ZM17.3086 17.2461C16.4362 17.2461 15.7266 16.5364 15.7266 15.6641C15.7266 14.7917 16.4362 14.082 17.3086 14.082C18.181 14.082 18.8906 14.7917 18.8906 15.6641C18.8906 16.5364 18.181 17.2461 17.3086 17.2461Z" fill="white"/>
<path d="M3.79875 3.57504C3.63548 3.47769 3.43313 3.47463 3.26729 3.56836C3.10195 3.66205 3 3.83716 3 4.02718V14.6092C3 14.7946 3.09735 14.9661 3.25594 15.0614L8.30859 18.0718V6.25996L3.79875 3.57504Z" fill="white"/>
<path d="M19.6894 6.73919L14.6719 3.72852V11.7213C15.4267 11.2149 16.3333 10.9179 17.3086 10.9179C18.2839 10.9179 19.1905 11.2149 19.9453 11.7213V7.19134C19.9453 7.00596 19.848 6.83446 19.6894 6.73919Z" fill="white"/>
<path d="M13.6172 3.72852L9.36328 6.25998V18.0719L12.6005 16.1507C12.5839 15.989 12.5625 15.8281 12.5625 15.664C12.5625 14.5454 12.9675 13.5297 13.6172 12.7177V3.72852Z" fill="white"/>
</svg>
