<?xml version="1.0" encoding="UTF-8" standalone="no"?>
<svg
   xmlns:osb="http://www.openswatchbook.org/uri/2009/osb"
   xmlns:dc="http://purl.org/dc/elements/1.1/"
   xmlns:cc="http://creativecommons.org/ns#"
   xmlns:rdf="http://www.w3.org/1999/02/22-rdf-syntax-ns#"
   xmlns:svg="http://www.w3.org/2000/svg"
   xmlns="http://www.w3.org/2000/svg"
   xmlns:sodipodi="http://sodipodi.sourceforge.net/DTD/sodipodi-0.dtd"
   xmlns:inkscape="http://www.inkscape.org/namespaces/inkscape"
   width="29"
   height="30"
   viewBox="0 0 29 30"
   fill="none"
   version="1.1"
   id="svg23"
   sodipodi:docname="instagram.svg"
   inkscape:version="1.0.2 (e86c8708, 2021-01-15)">
  <metadata
     id="metadata27">
    <rdf:RDF>
      <cc:Work
         rdf:about="">
        <dc:format>image/svg+xml</dc:format>
        <dc:type
           rdf:resource="http://purl.org/dc/dcmitype/StillImage" />
      </cc:Work>
    </rdf:RDF>
  </metadata>
  <sodipodi:namedview
     pagecolor="#ffffff"
     bordercolor="#666666"
     borderopacity="1"
     objecttolerance="10"
     gridtolerance="10"
     guidetolerance="10"
     inkscape:pageopacity="0"
     inkscape:pageshadow="2"
     inkscape:window-width="1762"
     inkscape:window-height="817"
     id="namedview25"
     showgrid="false"
     inkscape:zoom="26.344828"
     inkscape:cx="12.67801"
     inkscape:cy="8.9267016"
     inkscape:window-x="171"
     inkscape:window-y="94"
     inkscape:window-maximized="0"
     inkscape:current-layer="svg23" />
  <defs
     id="defs21">
    <linearGradient
       id="linearGradient928"
       osb:paint="solid">
      <stop
         style="stop-color:#ff00ff;stop-opacity:1;"
         offset="0"
         id="stop926" />
    </linearGradient>
  </defs>
  <path
     id="path12"
     style="fill:#000000;fill-opacity:1;fill-rule:evenodd;stroke:none;stroke-opacity:1"
     d="m 14.505859,0.1015625 c -3.9379,0 -4.434025,0.0179935 -5.9785152,0.0859375 C 7.3237837,0.210411 6.1329494,0.43864712 5.0058594,0.86132812 4.0367294,1.2258381 3.1591869,1.7986325 2.4355469,2.5390625 1.6996869,3.2635225 1.130376,4.1375356 0.765625,5.1035156 0.342759,6.2308156 0.11349445,7.4232131 0.08984375,8.6269531 0.01570655,10.176043 0,10.668469 0,14.605469 c 0,3.9371 0.0179784,4.429862 0.0859375,5.976562 0.0235182,1.2025 0.25084113,2.391578 0.67382812,3.517578 0.37355398,0.9635 0.94473128,1.839813 1.67578128,2.570313 0.73106,0.7305 1.6063925,1.298975 2.5703125,1.671875 1.12637,0.4224 2.3167812,0.651681 3.5195312,0.675781 1.5469604,0.068 2.0385624,0.08398 5.9765624,0.08398 3.9379,0 4.431516,-0.01598 5.978516,-0.08398 1.2028,-0.0235 2.393331,-0.252881 3.519531,-0.675781 0.9626,-0.3733 1.835153,-0.943328 2.564453,-1.673828 0.7294,-0.7305 1.298322,-1.60536 1.669922,-2.56836 0.4223,-1.1262 0.651581,-2.315078 0.675781,-3.517578 0.068,-1.5467 0.08398,-2.039462 0.08398,-5.976562 0,-3.937 0.0019,-4.429943 -0.07227,-5.9765628 l 0.0039,-0.00195 c -0.0236,-1.20254 -0.250828,-2.3935512 -0.673828,-3.5195312 -0.3735,-0.96299 -0.945181,-1.8381294 -1.675781,-2.5683594 -0.7306,-0.73023 -1.60506,-1.298742 -2.56836,-1.671875 -1.1264,-0.422364 -2.316731,-0.65171725 -3.519531,-0.67578125 -1.5531,-0.072886 -2.044422,-0.0898438 -5.982422,-0.0898438 z m 0.01172,2.6328125 c 3.87,0 4.334675,0.017987 5.859375,0.085937 0.9189,0.00797 1.829606,0.1751606 2.691406,0.4941406 0.6295,0.23097 1.199216,0.6007213 1.666016,1.0820313 0.4801,0.46774 0.849531,1.0354325 1.082031,1.6640625 0.3184,0.86174 0.485441,1.7727762 0.494141,2.6914062 0.0679,1.5293804 0.08398,1.9882214 0.08398,5.8574224 0,3.869099 -0.01608,4.325315 -0.08398,5.853515 l 0.0039,0.002 c -0.008,0.9187 -0.17504,1.829806 -0.494141,2.691406 -0.2417,0.6255 -0.611637,1.193769 -1.085937,1.667969 -0.4743,0.4742 -1.044222,0.844237 -1.669922,1.085937 -0.8619,0.3184 -1.770553,0.485642 -2.689453,0.494141 -1.5297,0.068 -1.989375,0.08594 -5.859375,0.08594 -3.8699,0 -4.334595,-0.01794 -5.859375,-0.08594 -0.91889,-0.0079 -1.8296762,-0.175141 -2.6914062,-0.494141 -0.6294701,-0.2311 -1.1991757,-0.600731 -1.6660157,-1.082031 -0.4801,-0.4677 -0.8495012,-1.037416 -1.0820312,-1.666016 -0.31847,-0.861799 -0.4855706,-1.770752 -0.4941407,-2.689453 -0.06796,-1.5293 -0.085937,-1.990275 -0.085937,-5.859374 0,-3.8692 0.017977,-4.332942 0.085937,-5.8574221 0.0079,-0.91869 0.1750207,-1.8298563 0.4941407,-2.6914063 0.23119,-0.63077 0.6028406,-1.1991725 1.0878906,-1.6640625 0.46626,-0.48108 1.0342294,-0.8521175 1.6621094,-1.0859375 C 6.8287319,2.9961896 7.7393781,2.829029 8.6581981,2.820359 10.187908,2.752409 10.647573,2.734422 14.517573,2.734422 Z m 7.734375,2.3867188 c -0.344,0 -0.680697,0.1018487 -0.966797,0.2929687 -0.2861,0.19113 -0.508925,0.46342 -0.640625,0.78125 -0.1316,0.31783 -0.164756,0.6665063 -0.09766,1.0039063 0.0671,0.3374099 0.231309,0.647375 0.474609,0.890625 0.2433,0.24326 0.553225,0.4094525 0.890625,0.4765624 0.3375,0.06712 0.68796,0.032041 1.00586,-0.099609 0.3179,-0.13165 0.59005,-0.354585 0.78125,-0.640625 0.1912,-0.28604 0.292969,-0.6227869 0.292969,-0.9667969 0,-0.46132 -0.183466,-0.9023256 -0.509766,-1.2285156 -0.3262,-0.3262 -0.768969,-0.5097656 -1.230469,-0.5097656 z M 14.50586,7.1542969 c -1.4737,0 -2.913372,0.4373293 -4.138671,1.2558593 -1.2252505,0.81852 -2.1802011,1.9825498 -2.7441411,3.3437498 -0.56393,1.3611 -0.7113182,2.857735 -0.4238281,4.302735 0.28749,1.445 0.9970424,2.772753 2.0390624,3.814453 1.0420398,1.0418 2.3691528,1.751662 3.8144528,2.039062 1.4453,0.2875 2.943288,0.139972 4.304688,-0.423828 1.3615,-0.5638 2.52505,-1.51914 3.34375,-2.74414 0.8187,-1.225001 1.255859,-2.665372 1.255859,-4.138672 -6e-4,-1.9755 -0.786393,-3.868735 -2.183593,-5.2656254 C 18.376338,7.9410306 16.48166,7.1549569 14.50586,7.1542969 Z m -0.234375,2.6230469 c 0.710344,-0.034607 1.42151,0.087008 2.083985,0.3613282 0.8832,0.3658 1.638722,0.98645 2.169922,1.78125 0.5311,0.7947 0.814453,1.727694 0.814453,2.683594 0,1.2817 -0.509516,2.511668 -1.416016,3.417968 -0.9065,0.9063 -2.136069,1.416016 -3.417969,1.416016 -0.9561,0 -1.890647,-0.283353 -2.685547,-0.814453 -0.7949,-0.531 -1.413496,-1.286922 -1.779296,-2.169922 -0.3659004,-0.8831 -0.461901,-1.855469 -0.275391,-2.792969 0.18651,-0.9374 0.646266,-1.796756 1.322266,-2.472656 0.676,-0.6758 1.537009,-1.137729 2.474609,-1.3242188 0.234425,-0.046617 0.472203,-0.074402 0.708984,-0.085937 z"
     clip-path="none" />
</svg>
