<svg width="18" height="18" viewBox="0 0 18 18" fill="none" xmlns="http://www.w3.org/2000/svg">
<path d="M16.9996 16.9992V11.4989C16.9996 8.80781 16.4211 6.73503 13.2769 6.73503C12.6869 6.71377 12.1021 6.8528 11.5847 7.13736C11.0672 7.42192 10.6364 7.84141 10.3378 8.3513H10.2936V6.98471H7.31836V16.9992H10.422V12.0396C10.422 10.7343 10.6736 9.4719 12.2844 9.4719C13.8768 9.4719 13.8989 10.9619 13.8989 12.1238V16.9992H16.9996Z" fill="#F8A63E"/>
<path d="M2.27051 6.98486H5.36968V17.0001H2.27051V6.98486Z" fill="#F8A63E"/>
<path d="M3.81677 2C3.4004 2.00013 2.99696 2.14477 2.67517 2.40929C2.35339 2.67382 2.13318 3.04185 2.05206 3.45069C1.97095 3.85952 2.03394 4.28387 2.23032 4.65142C2.42669 5.01897 2.7443 5.30699 3.12901 5.4664C3.51373 5.62581 3.94176 5.64676 4.34017 5.52566C4.73859 5.40457 5.08273 5.14892 5.31397 4.80229C5.54522 4.45567 5.64925 4.03949 5.60834 3.62469C5.56744 3.20988 5.38413 2.82211 5.08965 2.52743C4.75148 2.1904 4.29396 2.00082 3.81677 2V2Z" fill="#F8A63E"/>
</svg>
