<?xml version="1.0" encoding="UTF-8" standalone="no"?>
<svg
   xmlns:dc="http://purl.org/dc/elements/1.1/"
   xmlns:cc="http://creativecommons.org/ns#"
   xmlns:rdf="http://www.w3.org/1999/02/22-rdf-syntax-ns#"
   xmlns:svg="http://www.w3.org/2000/svg"
   xmlns="http://www.w3.org/2000/svg"
   xmlns:sodipodi="http://sodipodi.sourceforge.net/DTD/sodipodi-0.dtd"
   xmlns:inkscape="http://www.inkscape.org/namespaces/inkscape"
   width="30"
   height="30"
   viewBox="0 0 30 30"
   fill="none"
   version="1.1"
   id="svg848"
   sodipodi:docname="linkedin.svg"
   inkscape:version="1.0.2 (e86c8708, 2021-01-15)">
  <metadata
     id="metadata852">
    <rdf:RDF>
      <cc:Work
         rdf:about="">
        <dc:format>image/svg+xml</dc:format>
        <dc:type
           rdf:resource="http://purl.org/dc/dcmitype/StillImage" />
      </cc:Work>
    </rdf:RDF>
  </metadata>
  <sodipodi:namedview
     pagecolor="#ffffff"
     bordercolor="#666666"
     borderopacity="1"
     objecttolerance="10"
     gridtolerance="10"
     guidetolerance="10"
     inkscape:pageopacity="0"
     inkscape:pageshadow="2"
     inkscape:window-width="2560"
     inkscape:window-height="942"
     id="namedview850"
     showgrid="false"
     inkscape:zoom="22.266667"
     inkscape:cx="15"
     inkscape:cy="15"
     inkscape:window-x="71"
     inkscape:window-y="25"
     inkscape:window-maximized="0"
     inkscape:current-layer="svg848" />
  <path
     d="M 29.6129,8.62601 C 29.5893,7.42347 29.3612,6.2337 28.9382,5.10772 28.5647,4.14473 27.9945,3.2702 27.2639,2.53997 26.5333,1.80974 25.6584,1.23987 24.6951,0.866737 23.5687,0.444373 22.3788,0.216296 21.1761,0.192232 19.6229,0.119346 19.1299,0.102051 15.1919,0.102051 11.254,0.102051 10.7585,0.119346 9.21402,0.18729 8.01047,0.210201 6.8196,0.437879 5.69251,0.86056 4.72338,1.22507 3.84606,1.79774 3.12242,2.53817 2.38656,3.26263 1.81661,4.13803 1.45186,5.10401 c -0.42287,1.1273 -0.650997,2.31826 -0.674648,3.522 -0.074137,1.54909 -0.0902,2.04209 -0.0902,5.97909 0,3.9371 0.017298,4.43 0.085257,5.9767 0.023519,1.2025 0.251661,2.3923 0.674651,3.5183 0.37355,0.9635 0.94409,1.8384 1.67515,2.5689 0.73105,0.7305 1.60652,1.3004 2.57044,1.6733 1.12637,0.4224 2.3163,0.6504 3.51904,0.6745 1.54695,0.068 2.04005,0.0852 5.97795,0.0852 3.9379,0 4.4309,-0.0172 5.9779,-0.0852 1.2028,-0.0235 2.3928,-0.2516 3.5191,-0.6745 0.9625,-0.3733 1.8365,-0.9434 2.5659,-1.6739 0.7294,-0.7305 1.2981,-1.6053 1.6698,-2.5683 0.4222,-1.1262 0.6504,-2.3158 0.6746,-3.5183 0.068,-1.5467 0.0853,-2.0396 0.0853,-5.9767 0,-3.937 0,-4.43 -0.0742,-5.97662 z M 27.0008,20.4657 c -0.008,0.9187 -0.1752,1.829 -0.4943,2.6906 -0.2417,0.6255 -0.6116,1.1937 -1.0859,1.6679 -0.4743,0.4742 -1.0426,0.844 -1.6683,1.0857 -0.8619,0.3184 -1.7723,0.4856 -2.6912,0.4941 -1.5297,0.068 -1.9893,0.0853 -5.8593,0.0853 -3.8699,0 -4.3345,-0.0173 -5.85927,-0.0853 C 8.42364,26.3961 7.51308,26.2289 6.65135,25.9099 6.02188,25.6788 5.45258,25.309 4.98573,24.8277 4.50563,24.36 4.13586,23.7911 3.90333,23.1625 3.58486,22.3007 3.41766,21.3905 3.40908,20.4718 3.34112,18.9425 3.32382,18.4829 3.32382,14.6138 c 0,-3.8692 0.0173,-4.3336 0.08526,-5.85808 C 3.41699,7.83703 3.58421,6.92667 3.90333,6.06512 4.13452,5.43435 4.50686,4.86475 4.99191,4.39986 5.45817,3.91878 6.02594,3.5478 6.65382,3.31398 7.51576,2.99567 8.42618,2.82851 9.345,2.81984 10.8747,2.75189 11.3343,2.7346 15.2043,2.7346 c 3.87,0 4.3346,0.01729 5.8593,0.08524 0.9189,0.00797 1.8294,0.17516 2.6912,0.49414 0.6295,0.23097 1.1988,0.60086 1.6656,1.08217 0.4801,0.46774 0.8499,1.03663 1.0824,1.66526 0.3184,0.86174 0.4856,1.77198 0.4943,2.69061 0.0679,1.52938 0.0852,1.98888 0.0852,5.85808 0,3.8691 -0.0173,4.3237 -0.0852,5.8519 z"
     fill="#002541"
     id="path833"
     style="display:inline" />
  <path
     d="m 22.6314,21.2296 v -5.3985 c 0,-2.6412 -0.5683,-4.6758 -3.6574,-4.6758 -0.5797,-0.0209 -1.1543,0.1155 -1.6627,0.3948 -0.5084,0.2793 -0.9317,0.691 -1.2249,1.1914 h -0.0433 v -1.3404 h -2.9235 v 9.8285 h 3.0495 v -4.8673 c 0,-1.2811 0.2472,-2.5201 1.83,-2.5201 1.5643,0 1.5865,1.4626 1.5865,2.6029 v 4.7845 z"
     fill="#002541"
     id="path835"
     style="display:inline" />
  <path
     d="m 8.15918,11.4011 h 3.04832 v 9.8285 H 8.15918 Z"
     fill="#002541"
     id="path837"
     style="display:inline" />
  <path
     d="M 9.67852,6.50808 C 9.32636,6.50637 8.98165,6.60932 8.68813,6.80386 8.39461,6.9984 8.16553,7.27575 8.02998,7.6007 7.89442,7.92566 7.85851,8.28355 7.92679,8.62895 c 0.06828,0.3454 0.23768,0.66273 0.4867,0.91169 0.24901,0.24896 0.5664,0.41832 0.91187,0.48656 0.34548,0.0683 0.70344,0.0324 1.02844,-0.10313 0.3251,-0.13553 0.6025,-0.36456 0.797,-0.65802 0.1946,-0.29345 0.2976,-0.6381 0.2959,-0.99018 0,-0.46884 -0.1863,-0.91849 -0.5179,-1.25002 C 10.5972,6.69433 10.1475,6.50808 9.67852,6.50808 Z"
     fill="#002541"
     id="path839"
     style="display:inline" />
  <defs
     id="defs846" />
</svg>
