<svg width="24" height="25" viewBox="0 0 24 25" fill="none" xmlns="http://www.w3.org/2000/svg">
<path d="M4.0698 13.4639H2.0498C2.2498 15.4739 3.0498 17.3039 4.2598 18.7939L5.6898 17.3639C4.8298 16.2539 4.2498 14.9239 4.0698 13.4639Z" fill="#002541"/>
<path d="M5.6898 7.56379L4.2598 6.13379C3.0498 7.62379 2.2498 9.45379 2.0498 11.4638H4.0698C4.2498 10.0038 4.8298 8.67379 5.6898 7.56379Z" fill="#002541"/>
<path d="M10.9999 4.53367V2.51367C8.98992 2.71367 7.15992 3.51367 5.66992 4.72367L7.09992 6.15367C8.20992 5.29367 9.53992 4.71367 10.9999 4.53367Z" fill="#002541"/>
<path d="M18.33 4.72367C16.84 3.51367 15.01 2.71367 13 2.51367V4.53367C14.46 4.71367 15.79 5.29367 16.9 6.15367L18.33 4.72367Z" fill="#002541"/>
<path d="M18.3096 17.3639L19.7396 18.7939C20.9496 17.3139 21.7496 15.4739 21.9496 13.4639H19.9296C19.7496 14.9239 19.1696 16.2539 18.3096 17.3639Z" fill="#002541"/>
<path d="M19.9296 11.4638H21.9496C21.7496 9.45379 20.9496 7.62379 19.7396 6.13379L18.3096 7.56379C19.1696 8.67379 19.7496 10.0038 19.9296 11.4638Z" fill="#002541"/>
<path d="M13 20.3934V22.4134C15.01 22.2134 16.84 21.4134 18.33 20.2034L16.9 18.7734C15.79 19.6334 14.46 20.2134 13 20.3934Z" fill="#002541"/>
<path d="M5.66992 20.2034C7.14992 21.4134 8.98992 22.2134 10.9999 22.4134V20.3934C9.53992 20.2134 8.20992 19.6334 7.09992 18.7734L5.66992 20.2034Z" fill="#002541"/>
<path d="M12 17.4639C14.7614 17.4639 17 15.2253 17 12.4639C17 9.70244 14.7614 7.46387 12 7.46387C9.23858 7.46387 7 9.70244 7 12.4639C7 15.2253 9.23858 17.4639 12 17.4639Z" fill="#002541"/>
</svg>
