<?xml version="1.0" encoding="UTF-8" standalone="no"?>
<svg
   xmlns:dc="http://purl.org/dc/elements/1.1/"
   xmlns:cc="http://creativecommons.org/ns#"
   xmlns:rdf="http://www.w3.org/1999/02/22-rdf-syntax-ns#"
   xmlns:svg="http://www.w3.org/2000/svg"
   xmlns="http://www.w3.org/2000/svg"
   xmlns:sodipodi="http://sodipodi.sourceforge.net/DTD/sodipodi-0.dtd"
   xmlns:inkscape="http://www.inkscape.org/namespaces/inkscape"
   width="13"
   height="11"
   viewBox="0 0 13 11"
   fill="none"
   version="1.1"
   id="svg858"
   sodipodi:docname="open-quotes.svg"
   inkscape:version="1.0.2 (e86c8708, 2021-01-15)">
  <metadata
     id="metadata862">
    <rdf:RDF>
      <cc:Work
         rdf:about="">
        <dc:format>image/svg+xml</dc:format>
        <dc:type
           rdf:resource="http://purl.org/dc/dcmitype/StillImage" />
      </cc:Work>
    </rdf:RDF>
  </metadata>
  <sodipodi:namedview
     pagecolor="#ffffff"
     bordercolor="#666666"
     borderopacity="1"
     objecttolerance="10"
     gridtolerance="10"
     guidetolerance="10"
     inkscape:pageopacity="0"
     inkscape:pageshadow="2"
     inkscape:window-width="2560"
     inkscape:window-height="942"
     id="namedview860"
     showgrid="false"
     inkscape:zoom="25.841539"
     inkscape:cx="5.9233692"
     inkscape:cy="-0.77289935"
     inkscape:window-x="0"
     inkscape:window-y="25"
     inkscape:window-maximized="1"
     inkscape:current-layer="svg858" />
  <path
     style="color:#000000;font-style:normal;font-variant:normal;font-weight:normal;font-stretch:normal;font-size:medium;line-height:normal;font-family:sans-serif;font-variant-ligatures:normal;font-variant-position:normal;font-variant-caps:normal;font-variant-numeric:normal;font-variant-alternates:normal;font-variant-east-asian:normal;font-feature-settings:normal;font-variation-settings:normal;text-indent:0;text-align:start;text-decoration:none;text-decoration-line:none;text-decoration-style:solid;text-decoration-color:#000000;letter-spacing:normal;word-spacing:normal;text-transform:none;writing-mode:lr-tb;direction:ltr;text-orientation:mixed;dominant-baseline:auto;baseline-shift:baseline;text-anchor:start;white-space:normal;shape-padding:0;shape-margin:0;inline-size:0;clip-rule:nonzero;display:inline;overflow:visible;visibility:visible;isolation:auto;mix-blend-mode:normal;color-interpolation:sRGB;color-interpolation-filters:linearRGB;solid-color:#000000;solid-opacity:1;vector-effect:none;fill:#a8a8a8;fill-opacity:1;fill-rule:nonzero;stroke:none;stroke-width:1;stroke-linecap:butt;stroke-linejoin:miter;stroke-miterlimit:4;stroke-dasharray:none;stroke-dashoffset:0;stroke-opacity:1;color-rendering:auto;image-rendering:auto;shape-rendering:auto;text-rendering:auto;enable-background:accumulate;stop-color:#000000"
     d="M 4.27801e-4,3.02448 C 0.00151301,2.34885 0.217536,1.69297 0.614204,1.16096 1.01087,0.62894 1.56545,0.25128 2.18989,0.0879308 2.41618,0.0294668 2.64836,-5.78182e-5 2.8814,8.5003e-8 4.47163,8.5003e-8 5.76224,1.35496 5.76224,3.02448 c 0,1.66951 -1.29061,3.0246 -2.88084,3.0246 -0.42781,2.6e-4 -0.85027,-0.09973 -1.23659,-0.29267 0.54471,1.99301 1.83545,3.65372 3.5325,4.63039 0.0671,0.0373 0.14247,0.0769 0.22426,0.1166 0.26606,0.1275 0.14246,0.552 -0.14457,0.4905 C 5.00549,10.9411 4.76459,10.8708 4.55711,10.7738 1.80023,9.50907 -0.102199,6.57744 0.00425238,3.19166 0.00252548,3.13662 4.27801e-4,3.07951 4.27801e-4,3.02448 Z"
     id="path847" />
  <path
     style="color:#000000;font-style:normal;font-variant:normal;font-weight:normal;font-stretch:normal;font-size:medium;line-height:normal;font-family:sans-serif;font-variant-ligatures:normal;font-variant-position:normal;font-variant-caps:normal;font-variant-numeric:normal;font-variant-alternates:normal;font-variant-east-asian:normal;font-feature-settings:normal;font-variation-settings:normal;text-indent:0;text-align:start;text-decoration:none;text-decoration-line:none;text-decoration-style:solid;text-decoration-color:#000000;letter-spacing:normal;word-spacing:normal;text-transform:none;writing-mode:lr-tb;direction:ltr;text-orientation:mixed;dominant-baseline:auto;baseline-shift:baseline;text-anchor:start;white-space:normal;shape-padding:0;shape-margin:0;inline-size:0;clip-rule:nonzero;display:inline;overflow:visible;visibility:visible;isolation:auto;mix-blend-mode:normal;color-interpolation:sRGB;color-interpolation-filters:linearRGB;solid-color:#000000;solid-opacity:1;vector-effect:none;fill:#a8a8a8;fill-opacity:1;fill-rule:nonzero;stroke:none;stroke-width:1;stroke-linecap:butt;stroke-linejoin:miter;stroke-miterlimit:4;stroke-dasharray:none;stroke-dashoffset:0;stroke-opacity:1;color-rendering:auto;image-rendering:auto;shape-rendering:auto;text-rendering:auto;enable-background:accumulate;stop-color:#000000"
     d="M 7.23887,3.02448 C 7.23975,2.34878 7.45571,1.69277 7.85243,1.16071 8.24916,0.628645 8.80389,0.251051 9.42846,0.0879308 9.6547,0.0294671 9.88684,-5.75158e-5 10.1198,8.41158e-8 11.7101,8.41158e-8 13.0008,1.35496 13.0008,3.02448 c 0,1.66951 -1.2904,3.0246 -2.8816,3.0246 -0.42766,2e-4 -0.84999,-0.09978 -1.2362,-0.29267 0.54484,1.99301 1.8355,3.65372 3.5326,4.63039 0.067,0.0373 0.1425,0.0769 0.2242,0.1166 0.266,0.1275 0.1424,0.552 -0.1446,0.4905 C 12.2438,10.9411 12.0028,10.8708 11.7954,10.7738 9.03806,9.50894 7.13563,6.57679 7.24257,3.19153 7.24097,3.13662 7.23887,3.07951 7.23887,3.02448 Z"
     id="path849" />
  <defs
     id="defs856" />
</svg>
