<svg width="24" height="25" viewBox="0 0 24 25" fill="none" xmlns="http://www.w3.org/2000/svg">
<path d="M20 7.25684V3.25684C20 2.70684 19.55 2.25684 19 2.25684H7C6.45 2.25684 6 2.70684 6 3.25684V4.25684H4C2.9 4.25684 2 5.15684 2 6.25684V10.2568C2 11.3568 2.9 12.2568 4 12.2568H12V15.2568H11C10.45 15.2568 10 15.7068 10 16.2568V22.2568C10 22.8068 10.45 23.2568 11 23.2568H15C15.55 23.2568 16 22.8068 16 22.2568V16.2568C16 15.7068 15.55 15.2568 15 15.2568H14V12.2568C14 11.1568 13.1 10.2568 12 10.2568H4V6.25684H6V7.25684C6 7.80684 6.45 8.25684 7 8.25684H19C19.55 8.25684 20 7.80684 20 7.25684ZM8 4.25684H18V6.25684H8V4.25684ZM14 21.2568H12V17.2568H14V21.2568Z" fill="#002541"/>
</svg>
