<svg width="18" height="19" viewBox="0 0 18 19" fill="none" xmlns="http://www.w3.org/2000/svg">
<path d="M13.5 12.0903C12.93 12.0903 12.42 12.3153 12.03 12.6678L6.6825 9.55527C6.72 9.38277 6.75 9.21027 6.75 9.03027C6.75 8.85027 6.72 8.67777 6.6825 8.50527L11.97 5.42277C12.375 5.79777 12.9075 6.03027 13.5 6.03027C14.745 6.03027 15.75 5.02527 15.75 3.78027C15.75 2.53527 14.745 1.53027 13.5 1.53027C12.255 1.53027 11.25 2.53527 11.25 3.78027C11.25 3.96027 11.28 4.13277 11.3175 4.30527L6.03 7.38777C5.625 7.01277 5.0925 6.78027 4.5 6.78027C3.255 6.78027 2.25 7.78527 2.25 9.03027C2.25 10.2753 3.255 11.2803 4.5 11.2803C5.0925 11.2803 5.625 11.0478 6.03 10.6728L11.37 13.7928C11.3325 13.9503 11.31 14.1153 11.31 14.2803C11.31 15.4878 12.2925 16.4703 13.5 16.4703C14.7075 16.4703 15.69 15.4878 15.69 14.2803C15.69 13.0728 14.7075 12.0903 13.5 12.0903ZM13.5 3.03027C13.9125 3.03027 14.25 3.36777 14.25 3.78027C14.25 4.19277 13.9125 4.53027 13.5 4.53027C13.0875 4.53027 12.75 4.19277 12.75 3.78027C12.75 3.36777 13.0875 3.03027 13.5 3.03027ZM4.5 9.78027C4.0875 9.78027 3.75 9.44277 3.75 9.03027C3.75 8.61777 4.0875 8.28027 4.5 8.28027C4.9125 8.28027 5.25 8.61777 5.25 9.03027C5.25 9.44277 4.9125 9.78027 4.5 9.78027ZM13.5 15.0453C13.0875 15.0453 12.75 14.7078 12.75 14.2953C12.75 13.8828 13.0875 13.5453 13.5 13.5453C13.9125 13.5453 14.25 13.8828 14.25 14.2953C14.25 14.7078 13.9125 15.0453 13.5 15.0453Z" fill="#F8A63E"/>
</svg>
