<svg width="24" height="25" viewBox="0 0 24 25" fill="none" xmlns="http://www.w3.org/2000/svg">
<path d="M15 12.6021H17C17 9.84205 14.76 7.60205 12 7.60205V9.60205C13.66 9.60205 15 10.9421 15 12.6021ZM19 12.6021H21C21 7.63205 16.97 3.60205 12 3.60205V5.60205C15.87 5.60205 19 8.73205 19 12.6021ZM20 16.1021C18.75 16.1021 17.55 15.9021 16.43 15.5321C16.33 15.5021 16.22 15.4821 16.12 15.4821C15.86 15.4821 15.61 15.5821 15.41 15.7721L13.21 17.9721C10.38 16.5321 8.06 14.2221 6.62 11.3821L8.82 9.17205C9.1 8.91205 9.18 8.52205 9.07 8.17205C8.7 7.05205 8.5 5.85205 8.5 4.60205C8.5 4.05205 8.05 3.60205 7.5 3.60205H4C3.45 3.60205 3 4.05205 3 4.60205C3 13.9921 10.61 21.6021 20 21.6021C20.55 21.6021 21 21.1521 21 20.6021V17.1021C21 16.5521 20.55 16.1021 20 16.1021ZM5.03 5.60205H6.53C6.6 6.48205 6.75 7.35205 6.98 8.18205L5.78 9.39205C5.38 8.18205 5.12 6.92205 5.03 5.60205ZM19 19.5721C17.68 19.482 16.4 19.222 15.2 18.812L16.4 17.6121C17.25 17.8521 18.12 18.002 19 18.062V19.5721Z" fill="#F8A63E"/>
</svg>
