<svg width="24" height="25" viewBox="0 0 24 25" fill="none" xmlns="http://www.w3.org/2000/svg">
<path d="M6.54 5.60205C6.6 6.49205 6.75 7.36205 6.99 8.19205L5.79 9.39205C5.38 8.19205 5.12 6.92205 5.03 5.60205H6.54ZM16.4 17.6221C17.25 17.8621 18.12 18.012 19 18.0721V19.562C17.68 19.472 16.41 19.212 15.2 18.812L16.4 17.6221ZM7.5 3.60205H4C3.45 3.60205 3 4.05205 3 4.60205C3 13.9921 10.61 21.6021 20 21.6021C20.55 21.6021 21 21.1521 21 20.6021V17.1121C21 16.5621 20.55 16.1121 20 16.1121C18.76 16.1121 17.55 15.9121 16.43 15.5421C16.33 15.5021 16.22 15.4921 16.12 15.4921C15.86 15.4921 15.61 15.5921 15.41 15.7821L13.21 17.982C10.38 16.5321 8.06 14.2221 6.62 11.3921L8.82 9.19205C9.1 8.91205 9.18 8.52205 9.07 8.17205C8.7 7.05205 8.5 5.85205 8.5 4.60205C8.5 4.05205 8.05 3.60205 7.5 3.60205Z" fill="#F8A63E"/>
</svg>
