<svg width="24" height="24" viewBox="0 0 24 24" fill="none" xmlns="http://www.w3.org/2000/svg">
<path d="M18.7496 10.08L17.3996 6.05C16.9996 4.82 15.8496 4 14.5596 4H9.43957C8.14957 4 6.99957 4.82 6.59957 6.05L5.80957 8.4L4.40957 7L4.69957 6.71C5.08957 6.32 5.08957 5.69 4.69957 5.3C4.30957 4.91 3.67957 4.91 3.28957 5.3L1.28957 7.3C0.89957 7.69 0.89957 8.32 1.28957 8.71C1.67957 9.1 2.30957 9.1 2.69957 8.71L2.99957 8.41L4.78957 10.2C3.17957 10.72 1.99957 12.22 1.99957 14C1.99957 15.49 2.82957 16.78 4.04957 17.47C4.26957 18.9 5.50957 20 6.99957 20C8.29957 20 9.39957 19.16 9.81957 18H14.1896C14.5996 19.16 15.6996 20 17.0096 20C18.4996 20 19.7396 18.9 19.9596 17.47C21.1696 16.78 21.9996 15.49 21.9996 14C21.9996 12.05 20.5996 10.43 18.7496 10.08ZM12.9996 6H14.5596C14.9896 6 15.3696 6.27 15.5096 6.68L16.6096 10H12.9996V6ZM8.48957 6.68C8.62957 6.27 9.00957 6 9.43957 6H10.9996V10H7.40957L7.38957 9.98L8.48957 6.68ZM6.99957 18C6.44957 18 5.99957 17.55 5.99957 17C5.99957 16.45 6.44957 16 6.99957 16C7.54957 16 7.99957 16.45 7.99957 17C7.99957 17.55 7.54957 18 6.99957 18ZM16.9996 18C16.4496 18 15.9996 17.55 15.9996 17C15.9996 16.45 16.4496 16 16.9996 16C17.5496 16 17.9996 16.45 17.9996 17C17.9996 17.55 17.5496 18 16.9996 18ZM19.4896 15.32C18.9496 14.53 18.0296 14 16.9996 14C15.6996 14 14.5996 14.84 14.1796 16H9.81957C9.39957 14.84 8.29957 14 6.99957 14C5.96957 14 5.04957 14.53 4.50957 15.32C4.19957 14.97 3.99957 14.51 3.99957 14C3.99957 12.9 4.89957 12 5.99957 12H17.9996C19.0996 12 19.9996 12.9 19.9996 14C19.9996 14.51 19.7996 14.97 19.4896 15.32Z" fill="#002541"/>
</svg>
