<svg width="31" height="31" viewBox="0 0 31 31" fill="none" xmlns="http://www.w3.org/2000/svg">
<path d="M24.2679 7.07207C21.9187 4.72207 18.7905 3.43457 15.4614 3.43457C8.60209 3.43457 3.01164 8.99707 3.01164 15.8221C3.01164 18.0096 3.58952 20.1346 4.66993 22.0096L2.91113 28.4346L9.50661 26.7096C11.3282 27.6971 13.376 28.2221 15.4614 28.2221C22.3207 28.2221 27.9111 22.6596 27.9111 15.8346C27.9111 12.5221 26.6172 9.40957 24.2679 7.07207ZM15.4614 26.1221C13.6021 26.1221 11.7805 25.6221 10.185 24.6846L9.80812 24.4596L5.88852 25.4846L6.93123 21.6846L6.67998 21.2971C5.64983 19.6596 5.09706 17.7596 5.09706 15.8221C5.09706 10.1471 9.7453 5.52207 15.4488 5.52207C18.2126 5.52207 20.8131 6.59707 22.7604 8.54707C24.7202 10.4971 25.788 13.0846 25.788 15.8346C25.8131 21.5096 21.1649 26.1221 15.4614 26.1221ZM21.1398 18.4221C20.8257 18.2721 19.293 17.5221 19.0167 17.4096C18.7277 17.3096 18.5267 17.2596 18.3131 17.5596C18.0996 17.8721 17.5091 18.5721 17.3332 18.7721C17.1574 18.9846 16.9689 19.0096 16.6548 18.8471C16.3408 18.6971 15.3358 18.3596 14.1549 17.3096C13.2252 16.4846 12.6096 15.4721 12.4212 15.1596C12.2453 14.8471 12.3961 14.6846 12.5594 14.5221C12.6976 14.3846 12.8734 14.1596 13.0242 13.9846C13.175 13.8096 13.2378 13.6721 13.3383 13.4721C13.4388 13.2596 13.3885 13.0846 13.3131 12.9346C13.2378 12.7846 12.6096 11.2596 12.3584 10.6346C12.1071 10.0346 11.8433 10.1096 11.6549 10.0971C11.4664 10.0971 11.2654 10.0971 11.0518 10.0971C10.8383 10.0971 10.5116 10.1721 10.2227 10.4846C9.94631 10.7971 9.14229 11.5471 9.14229 13.0721C9.14229 14.5971 10.2604 16.0721 10.4111 16.2721C10.5619 16.4846 12.6096 19.6096 15.7252 20.9471C16.4664 21.2721 17.0443 21.4596 17.4966 21.5971C18.2378 21.8346 18.9162 21.7971 19.4564 21.7221C20.0594 21.6346 21.3031 20.9721 21.5543 20.2471C21.8182 19.5221 21.8182 18.9096 21.7302 18.7721C21.6423 18.6346 21.4538 18.5721 21.1398 18.4221Z" fill="white"/>
</svg>
