<?xml version="1.0" encoding="UTF-8" standalone="no"?>
<svg
   xmlns:dc="http://purl.org/dc/elements/1.1/"
   xmlns:cc="http://creativecommons.org/ns#"
   xmlns:rdf="http://www.w3.org/1999/02/22-rdf-syntax-ns#"
   xmlns:svg="http://www.w3.org/2000/svg"
   xmlns="http://www.w3.org/2000/svg"
   xmlns:sodipodi="http://sodipodi.sourceforge.net/DTD/sodipodi-0.dtd"
   xmlns:inkscape="http://www.inkscape.org/namespaces/inkscape"
   width="30"
   height="30"
   viewBox="0 0 30 30"
   fill="none"
   version="1.1"
   id="svg844"
   sodipodi:docname="youtube.svg"
   inkscape:version="1.0.2 (e86c8708, 2021-01-15)">
  <metadata
     id="metadata848">
    <rdf:RDF>
      <cc:Work
         rdf:about="">
        <dc:format>image/svg+xml</dc:format>
        <dc:type
           rdf:resource="http://purl.org/dc/dcmitype/StillImage" />
      </cc:Work>
    </rdf:RDF>
  </metadata>
  <sodipodi:namedview
     pagecolor="#ffffff"
     bordercolor="#666666"
     borderopacity="1"
     objecttolerance="10"
     gridtolerance="10"
     guidetolerance="10"
     inkscape:pageopacity="0"
     inkscape:pageshadow="2"
     inkscape:window-width="2038"
     inkscape:window-height="925"
     id="namedview846"
     showgrid="false"
     inkscape:zoom="22.266667"
     inkscape:cx="15"
     inkscape:cy="15"
     inkscape:window-x="239"
     inkscape:window-y="64"
     inkscape:window-maximized="0"
     inkscape:current-layer="svg844" />
  <path
     d="M 28.9864,8.62601 C 28.9629,7.42347 28.7347,6.2337 28.3118,5.10772 27.9383,4.14473 27.368,3.2702 26.6374,2.53997 25.9068,1.80974 25.0319,1.23987 24.0686,0.866737 22.9423,0.444373 21.7523,0.216296 20.5496,0.192232 18.9964,0.119346 18.5034,0.102051 14.5655,0.102051 c -3.9379,0 -4.4334,0.017295 -5.97794,0.085239 C 7.384,0.210201 6.19314,0.437879 5.06604,0.86056 4.09692,1.22507 3.2196,1.79774 2.49595,2.53817 1.7601,3.26263 1.19015,4.13803 0.825396,5.10401 0.40253,6.23131 0.174398,7.42227 0.150747,8.62601 0.07661,10.1751 0.0605469,10.6681 0.0605469,14.6051 c 0,3.9371 0.0172987,4.43 0.0852581,5.9767 0.023518,1.2025 0.251661,2.3923 0.674648,3.5183 0.373557,0.9635 0.944097,1.8384 1.675147,2.5689 0.73106,0.7305 1.60653,1.3004 2.57044,1.6733 1.12637,0.4224 2.3163,0.6504 3.51905,0.6745 1.54701,0.068 2.04001,0.0852 5.97791,0.0852 3.9379,0 4.431,-0.0172 5.9779,-0.0852 1.2029,-0.0235 2.3929,-0.2516 3.5191,-0.6745 0.9625,-0.3733 1.8365,-0.9434 2.5659,-1.6739 0.7294,-0.7305 1.2981,-1.6053 1.6698,-2.5683 0.4223,-1.1262 0.6504,-2.3158 0.6747,-3.5183 0.0679,-1.5467 0.0852,-2.0396 0.0852,-5.9767 0,-3.937 0,-4.43 -0.0741,-5.97662 z M 26.3743,20.4657 c -0.008,0.9187 -0.1752,1.829 -0.4942,2.6906 -0.2418,0.6255 -0.6117,1.1937 -1.086,1.6679 -0.4743,0.4742 -1.0425,0.844 -1.6682,1.0857 -0.8619,0.3184 -1.7724,0.4856 -2.6912,0.4941 -1.5297,0.068 -1.9894,0.0853 -5.8593,0.0853 -3.87,0 -4.3346,-0.0173 -5.85933,-0.0853 C 7.79718,26.3961 6.88662,26.2289 6.02488,25.9099 5.39542,25.6788 4.82611,25.309 4.35927,24.8277 3.87916,24.36 3.50939,23.7911 3.27687,23.1625 2.9584,22.3007 2.79119,21.3905 2.78262,20.4718 2.71466,18.9425 2.69736,18.4829 2.69736,14.6138 c 0,-3.8692 0.0173,-4.3336 0.08526,-5.85808 C 2.79052,7.83703 2.95775,6.92667 3.27687,6.06512 3.50806,5.43435 3.8804,4.86475 4.36545,4.39986 4.83171,3.91878 5.39948,3.5478 6.02736,3.31398 6.88929,2.99567 7.79972,2.82851 8.71854,2.81984 10.2482,2.75189 10.7079,2.7346 14.5778,2.7346 c 3.87,0 4.3346,0.01729 5.8594,0.08524 0.9188,0.00797 1.8294,0.17516 2.6911,0.49414 0.6295,0.23097 1.1989,0.60086 1.6657,1.08217 0.4801,0.46774 0.8499,1.03663 1.0824,1.66526 0.3184,0.86174 0.4856,1.77198 0.4942,2.69061 0.068,1.52938 0.0853,1.98888 0.0853,5.85808 0,3.8691 -0.0173,4.3237 -0.0853,5.8519 z"
     fill="#002541"
     id="path833" />
  <path
     d="M 10.6665,8.1925 V 21.0258 L 21.2082,14.6092 Z"
     fill="#002541"
     id="path835" />
  <defs
     id="defs842" />
</svg>
